<svg width="106" height="26" viewBox="0 0 106 26" fill="none" xmlns="http://www.w3.org/2000/svg">
<path d="M55.3218 21.0533H52.4752V15.3133C52.3274 15.5933 52.1407 15.8617 51.9152 16.1183C51.6974 16.375 51.4368 16.6122 51.1335 16.83C50.838 17.0478 50.4996 17.2189 50.1185 17.3433C49.7452 17.4678 49.333 17.53 48.8818 17.53C47.9407 17.53 47.0891 17.3122 46.3268 16.8767C45.5724 16.4333 44.9696 15.745 44.5185 14.8117C44.0752 13.8706 43.8535 12.6456 43.8535 11.1367C43.8535 9.81444 44.0441 8.69833 44.4252 7.78833C44.8063 6.87056 45.3507 6.17833 46.0585 5.71167C46.7741 5.23722 47.6257 5 48.6135 5C49.088 5 49.5235 5.06222 49.9202 5.18667C50.3246 5.30333 50.6863 5.46278 51.0052 5.665C51.3318 5.86722 51.6157 6.09667 51.8568 6.35333C52.098 6.61 52.3002 6.87055 52.4635 7.135L52.4752 5.23333H55.3218V21.0533ZM49.5118 15.4067C50.173 15.4067 50.7252 15.2161 51.1685 14.835C51.6118 14.4461 51.9424 13.9328 52.1602 13.295C52.378 12.6494 52.4868 11.9456 52.4868 11.1833C52.4868 10.0011 52.238 9.02889 51.7402 8.26667C51.2502 7.49667 50.5074 7.11167 49.5118 7.11167C48.6641 7.11167 47.9563 7.45 47.3885 8.12667C46.8285 8.80333 46.5485 9.82222 46.5485 11.1833C46.5485 12.5367 46.8091 13.5789 47.3302 14.31C47.8591 15.0411 48.5863 15.4067 49.5118 15.4067Z" fill="#1C3F39"/>
<path d="M62.9549 17.53C62.3638 17.53 61.7922 17.4444 61.2399 17.2733C60.6955 17.0944 60.2055 16.8378 59.7699 16.5033C59.3344 16.1611 58.9883 15.7411 58.7316 15.2433C58.4749 14.7456 58.3466 14.1661 58.3466 13.505V5.23333H61.1933V13.1783C61.1933 13.8317 61.3994 14.3683 61.8116 14.7883C62.2316 15.2083 62.8616 15.4183 63.7016 15.4183C64.4638 15.4183 65.0744 15.22 65.5333 14.8233C65.9922 14.4189 66.2216 13.8394 66.2216 13.085V5.23333H69.0449V17.2967H66.8633L66.5483 14.94C66.4005 15.6011 66.1399 16.1222 65.7666 16.5033C65.4011 16.8767 64.9694 17.1411 64.4716 17.2967C63.9816 17.4522 63.4761 17.53 62.9549 17.53Z" fill="#1C3F39"/>
<path d="M72.1935 17.2967V5.23333H74.9118V7.84667C75.1063 7.24778 75.3824 6.73833 75.7402 6.31833C76.1057 5.89055 76.5335 5.56389 77.0235 5.33833C77.5135 5.11278 78.0463 5 78.6218 5C78.7618 5 78.8979 5.00778 79.0302 5.02333C79.1624 5.03889 79.2596 5.06611 79.3218 5.105V7.82333C79.2363 7.78444 79.1235 7.75722 78.9835 7.74167C78.8513 7.72611 78.7346 7.71833 78.6335 7.71833C78.0502 7.67167 77.5329 7.695 77.0818 7.78833C76.6385 7.88167 76.2613 8.04111 75.9502 8.26667C75.6468 8.48444 75.4174 8.76444 75.2618 9.10667C75.1063 9.44111 75.0285 9.83389 75.0285 10.285V17.2967H72.1935Z" fill="#1C3F39"/>
<path d="M84.6808 17.53C83.9108 17.53 83.2186 17.39 82.6042 17.11C81.9975 16.8222 81.5192 16.4139 81.1692 15.885C80.8269 15.3483 80.6558 14.6989 80.6558 13.9367C80.6558 12.6067 81.1342 11.6033 82.0908 10.9267C83.0553 10.25 84.5914 9.89611 86.6992 9.865L88.4958 9.81833V9.00167C88.4958 8.36389 88.3053 7.86611 87.9242 7.50833C87.5508 7.14278 86.9675 6.96389 86.1742 6.97167C85.5908 6.97944 85.0542 7.11944 84.5642 7.39167C84.0819 7.65611 83.7631 8.10333 83.6075 8.73333H81.1925C81.2392 7.90889 81.4764 7.22056 81.9042 6.66833C82.3397 6.10833 82.9347 5.69222 83.6892 5.42C84.4436 5.14 85.3147 5 86.3025 5C87.4536 5 88.3908 5.15167 89.1142 5.455C89.8375 5.75833 90.3703 6.19778 90.7125 6.77333C91.0547 7.34111 91.2258 8.02944 91.2258 8.83833V17.2967H88.8342L88.6125 15.1267C88.1769 16.0367 87.6247 16.6667 86.9558 17.0167C86.2947 17.3589 85.5364 17.53 84.6808 17.53ZM85.6025 15.605C85.9525 15.605 86.2986 15.5428 86.6408 15.4183C86.9831 15.2861 87.2942 15.1111 87.5742 14.8933C87.8542 14.6678 88.0758 14.4189 88.2392 14.1467C88.4103 13.8744 88.4958 13.5906 88.4958 13.295V11.3933L87.0142 11.4167C86.2831 11.4244 85.6453 11.5022 85.1008 11.65C84.5564 11.7978 84.1286 12.035 83.8175 12.3617C83.5142 12.6806 83.3625 13.1083 83.3625 13.645C83.3625 14.2594 83.5764 14.7417 84.0042 15.0917C84.4319 15.4339 84.9647 15.605 85.6025 15.605Z" fill="#1C3F39"/>
<path d="M94.547 17.2967V5.23333H97.3237V6.96C97.5103 6.64889 97.7631 6.34944 98.082 6.06167C98.4087 5.77389 98.8092 5.54056 99.2837 5.36167C99.7581 5.18278 100.314 5.09333 100.952 5.09333C101.699 5.09333 102.391 5.24111 103.029 5.53667C103.674 5.83222 104.191 6.295 104.58 6.925C104.977 7.555 105.175 8.36778 105.175 9.36333V17.2967H102.329V9.70167C102.329 8.90833 102.111 8.32111 101.675 7.94C101.24 7.55111 100.691 7.35667 100.03 7.35667C99.5792 7.35667 99.1514 7.43444 98.747 7.59C98.3426 7.73778 98.012 7.96722 97.7553 8.27833C97.5065 8.58167 97.382 8.96278 97.382 9.42167V17.2967H94.547Z" fill="#1C3F39"/>
<path d="M35.6152 18.9053C30.6339 18.2591 24.0052 18.5316 17.8079 25.5004C11.6106 18.5316 4.98189 18.2591 0.000534058 18.9053L3.45218 15.3782C10.2927 14.4126 15.8859 17.4156 17.8079 19.0377C19.7298 17.4156 25.3231 14.4126 32.1636 15.3782L35.6152 18.9053Z" fill="#F2AC0D"/>
<path d="M21.1943 22.3466C20.0596 23.2023 18.9267 24.2421 17.8078 25.5003C16.689 24.2421 15.5561 23.2023 14.4213 22.3466L17.8078 19.0376L21.1943 22.3466Z" fill="#D29303"/>
<path d="M29.3672 13.3946C29.3412 12.1579 27.8832 9.21609 22.8456 6.24819C21.056 5.19381 17.8705 2.96789 17.808 0C17.7455 2.96789 14.5601 5.19381 12.7704 6.24819C7.73282 9.21609 6.27491 12.1579 6.24887 13.3946C8.51384 12.965 13.942 13.7851 17.808 17.1044C21.6741 13.7851 27.1022 12.965 29.3672 13.3946Z" fill="#26534C"/>
</svg>
