<svg width="106" height="26" viewBox="0 0 106 26" fill="none" xmlns="http://www.w3.org/2000/svg">
<path d="M55.3214 21.0533H52.4747V15.3133C52.3269 15.5933 52.1402 15.8617 51.9147 16.1183C51.6969 16.375 51.4364 16.6122 51.133 16.83C50.8375 17.0478 50.4991 17.2189 50.118 17.3433C49.7447 17.4678 49.3325 17.53 48.8814 17.53C47.9402 17.53 47.0886 17.3122 46.3264 16.8767C45.5719 16.4333 44.9691 15.745 44.518 14.8117C44.0747 13.8706 43.853 12.6456 43.853 11.1367C43.853 9.81444 44.0436 8.69833 44.4247 7.78833C44.8058 6.87056 45.3502 6.17833 46.058 5.71167C46.7736 5.23722 47.6252 5 48.613 5C49.0875 5 49.523 5.06222 49.9197 5.18667C50.3241 5.30333 50.6858 5.46278 51.0047 5.665C51.3314 5.86722 51.6152 6.09667 51.8564 6.35333C52.0975 6.61 52.2997 6.87055 52.463 7.135L52.4747 5.23333H55.3214V21.0533ZM49.5114 15.4067C50.1725 15.4067 50.7247 15.2161 51.168 14.835C51.6114 14.4461 51.9419 13.9328 52.1597 13.295C52.3775 12.6494 52.4864 11.9456 52.4864 11.1833C52.4864 10.0011 52.2375 9.02889 51.7397 8.26667C51.2497 7.49667 50.5069 7.11167 49.5114 7.11167C48.6636 7.11167 47.9558 7.45 47.388 8.12667C46.828 8.80333 46.548 9.82222 46.548 11.1833C46.548 12.5367 46.8086 13.5789 47.3297 14.31C47.8586 15.0411 48.5858 15.4067 49.5114 15.4067Z" fill="#1C3F39"/>
<path d="M62.9545 17.53C62.3633 17.53 61.7917 17.4444 61.2395 17.2733C60.695 17.0944 60.205 16.8378 59.7695 16.5033C59.3339 16.1611 58.9878 15.7411 58.7311 15.2433C58.4745 14.7456 58.3461 14.1661 58.3461 13.505V5.23333H61.1928V13.1783C61.1928 13.8317 61.3989 14.3683 61.8111 14.7883C62.2311 15.2083 62.8611 15.4183 63.7011 15.4183C64.4633 15.4183 65.0739 15.22 65.5328 14.8233C65.9917 14.4189 66.2211 13.8394 66.2211 13.085V5.23333H69.0445V17.2967H66.8628L66.5478 14.94C66.4 15.6011 66.1395 16.1222 65.7661 16.5033C65.4006 16.8767 64.9689 17.1411 64.4711 17.2967C63.9811 17.4522 63.4756 17.53 62.9545 17.53Z" fill="#1C3F39"/>
<path d="M72.193 17.2967V5.23333H74.9113V7.84667C75.1058 7.24778 75.3819 6.73833 75.7397 6.31833C76.1052 5.89055 76.533 5.56389 77.023 5.33833C77.513 5.11278 78.0458 5 78.6213 5C78.7613 5 78.8974 5.00778 79.0297 5.02333C79.1619 5.03889 79.2591 5.06611 79.3213 5.105V7.82333C79.2358 7.78444 79.123 7.75722 78.983 7.74167C78.8508 7.72611 78.7341 7.71833 78.633 7.71833C78.0497 7.67167 77.5324 7.695 77.0813 7.78833C76.638 7.88167 76.2608 8.04111 75.9497 8.26667C75.6463 8.48444 75.4169 8.76444 75.2613 9.10667C75.1058 9.44111 75.028 9.83389 75.028 10.285V17.2967H72.193Z" fill="#1C3F39"/>
<path d="M84.6803 17.53C83.9103 17.53 83.2181 17.39 82.6037 17.11C81.997 16.8222 81.5187 16.4139 81.1687 15.885C80.8265 15.3483 80.6553 14.6989 80.6553 13.9367C80.6553 12.6067 81.1337 11.6033 82.0903 10.9267C83.0548 10.25 84.5909 9.89611 86.6987 9.865L88.4953 9.81833V9.00167C88.4953 8.36389 88.3048 7.86611 87.9237 7.50833C87.5503 7.14278 86.967 6.96389 86.1737 6.97167C85.5903 6.97944 85.0537 7.11944 84.5637 7.39167C84.0815 7.65611 83.7626 8.10333 83.607 8.73333H81.192C81.2387 7.90889 81.4759 7.22056 81.9037 6.66833C82.3392 6.10833 82.9342 5.69222 83.6887 5.42C84.4431 5.14 85.3142 5 86.302 5C87.4531 5 88.3903 5.15167 89.1137 5.455C89.837 5.75833 90.3698 6.19778 90.712 6.77333C91.0542 7.34111 91.2253 8.02944 91.2253 8.83833V17.2967H88.8337L88.612 15.1267C88.1765 16.0367 87.6242 16.6667 86.9553 17.0167C86.2942 17.3589 85.5359 17.53 84.6803 17.53ZM85.602 15.605C85.952 15.605 86.2981 15.5428 86.6403 15.4183C86.9826 15.2861 87.2937 15.1111 87.5737 14.8933C87.8537 14.6678 88.0753 14.4189 88.2387 14.1467C88.4098 13.8744 88.4953 13.5906 88.4953 13.295V11.3933L87.0137 11.4167C86.2826 11.4244 85.6448 11.5022 85.1003 11.65C84.5559 11.7978 84.1281 12.035 83.817 12.3617C83.5137 12.6806 83.362 13.1083 83.362 13.645C83.362 14.2594 83.5759 14.7417 84.0037 15.0917C84.4315 15.4339 84.9642 15.605 85.602 15.605Z" fill="#1C3F39"/>
<path d="M94.5465 17.2967V5.23333H97.3232V6.96C97.5098 6.64889 97.7626 6.34944 98.0815 6.06167C98.4082 5.77389 98.8087 5.54056 99.2832 5.36167C99.7576 5.18278 100.314 5.09333 100.952 5.09333C101.698 5.09333 102.39 5.24111 103.028 5.53667C103.674 5.83222 104.191 6.295 104.58 6.925C104.977 7.555 105.175 8.36778 105.175 9.36333V17.2967H102.328V9.70167C102.328 8.90833 102.11 8.32111 101.675 7.94C101.239 7.55111 100.691 7.35667 100.03 7.35667C99.5787 7.35667 99.151 7.43444 98.7465 7.59C98.3421 7.73778 98.0115 7.96722 97.7549 8.27833C97.506 8.58167 97.3815 8.96278 97.3815 9.42167V17.2967H94.5465Z" fill="#1C3F39"/>
<path d="M35.6147 18.9053C30.6334 18.2591 24.0047 18.5316 17.8074 25.5004C11.6101 18.5316 4.9814 18.2591 4.57764e-05 18.9053L3.45169 15.3782C10.2922 14.4126 15.8855 17.4156 17.8074 19.0377C19.7293 17.4156 25.3226 14.4126 32.1631 15.3782L35.6147 18.9053Z" fill="#F2AC0D"/>
<path d="M21.1938 22.3466C20.0591 23.2023 18.9262 24.2421 17.8074 25.5003C16.6885 24.2421 15.5556 23.2023 14.4209 22.3466L17.8074 19.0376L21.1938 22.3466Z" fill="#D29303"/>
<path d="M29.3667 13.3946C29.3407 12.1579 27.8828 9.21609 22.8451 6.24819C21.0555 5.19381 17.87 2.96789 17.8075 0C17.7451 2.96789 14.5596 5.19381 12.7699 6.24819C7.73233 9.21609 6.27442 12.1579 6.24838 13.3946C8.51335 12.965 13.9415 13.7851 17.8075 17.1044C21.6736 13.7851 27.1017 12.965 29.3667 13.3946Z" fill="#26534C"/>
</svg>
