<svg width="1170" height="458" viewBox="0 0 1170 458" fill="none" xmlns="http://www.w3.org/2000/svg">
<path d="M529.023 246.837C531.278 248.166 532.806 250.599 532.806 253.41C532.806 257.492 529.607 260.798 525.587 261.015V301.875C529.609 302.091 532.808 305.397 532.808 309.479C532.808 313.564 529.609 316.871 525.587 317.087V338.422H525.628V457.367H462.907V425.328C462.907 402.691 430.516 387.863 430.516 387.863C430.516 387.863 398.128 402.693 398.128 425.328V457.367H317.417V402.013C317.417 370.276 272.001 349.482 272.001 349.482C272.001 349.482 226.581 370.274 226.581 402.013V457.367H145.871V425.328C145.871 402.691 113.483 387.863 113.483 387.863C113.483 387.863 81.0919 402.693 81.0919 425.328V457.367H18.3709V338.421H18.4148V316.991C14.3929 316.772 11.1907 313.466 11.1907 309.387C11.1907 305.306 14.3929 302.002 18.4148 301.783V260.919C14.3929 260.7 11.1907 257.396 11.1907 253.315C11.1907 250.505 12.7223 248.075 14.9801 246.746C5.73931 238.251 0 228.42 0 214.389C0 173.033 50.3448 164.881 50.3448 145.858C50.3448 164.882 100.701 173.033 100.701 214.389C100.701 228.419 94.9616 238.249 85.7237 246.746C87.9828 248.074 89.5173 250.505 89.5173 253.315C89.5173 257.397 86.3122 260.701 82.2846 260.919V301.783C86.3122 301.999 89.5173 305.305 89.5173 309.387C89.5173 313.468 86.3122 316.774 82.2846 316.991V338.421H176.676V307.303H187.507V285.877H188.404C169.306 267.257 157.612 245.613 157.612 215.401C157.612 128.9 254.563 106.342 269.949 69.59C266.226 68.1345 262.709 66.1367 259.571 63.5935C251.457 57.0192 246.384 47.6746 245.292 37.282C244.199 26.8895 247.216 16.6943 253.783 8.57219C256.383 5.3546 259.449 2.58713 262.895 0.347884L263.431 0L263.202 0.596376C257.211 16.2867 261.952 33.9338 274.996 44.5109C281.863 50.0714 290.492 53.1342 299.298 53.1342C306.804 53.1342 314.086 50.983 320.356 46.9149L320.893 46.5656L320.664 47.1634C319.183 51.01 317.117 54.5883 314.524 57.8016C307.07 67.0213 295.992 72.3091 284.13 72.3091C280.955 72.3091 277.807 71.8974 274.751 71.1363C292.151 106.991 386.387 130.119 386.387 215.402C386.387 245.616 374.688 267.259 355.591 285.878H356.489V307.304H367.323V338.422H461.711V317.087C457.688 316.87 454.493 313.563 454.493 309.479C454.493 305.397 457.688 302.093 461.711 301.875V261.014C457.688 260.795 454.493 257.492 454.493 253.41C454.493 250.596 456.021 248.165 458.276 246.836C449.034 238.336 443.299 228.506 443.299 214.477C443.299 173.121 493.65 164.976 493.65 145.953C493.65 164.976 544 173.121 544 214.477C544 228.507 538.264 238.337 529.023 246.837Z" fill="#20453F"/>
<path d="M1155.02 246.837C1157.28 248.166 1158.81 250.599 1158.81 253.41C1158.81 257.492 1155.61 260.798 1151.59 261.015V301.875C1155.61 302.091 1158.81 305.397 1158.81 309.479C1158.81 313.564 1155.61 316.871 1151.59 317.087V338.422H1151.63V457.367H1088.91V425.328C1088.91 402.691 1056.52 387.863 1056.52 387.863C1056.52 387.863 1024.13 402.693 1024.13 425.328V457.367H943.417V402.013C943.417 370.276 898.001 349.482 898.001 349.482C898.001 349.482 852.581 370.274 852.581 402.013V457.367H771.871V425.328C771.871 402.691 739.483 387.863 739.483 387.863C739.483 387.863 707.092 402.693 707.092 425.328V457.367H644.371V338.421H644.415V316.991C640.393 316.772 637.191 313.466 637.191 309.387C637.191 305.306 640.393 302.002 644.415 301.783V260.919C640.393 260.7 637.191 257.396 637.191 253.315C637.191 250.505 638.722 248.075 640.98 246.746C631.739 238.251 626 228.42 626 214.389C626 173.033 676.345 164.881 676.345 145.858C676.345 164.882 726.701 173.033 726.701 214.389C726.701 228.419 720.962 238.249 711.724 246.746C713.983 248.074 715.517 250.505 715.517 253.315C715.517 257.397 712.312 260.701 708.285 260.919V301.783C712.312 301.999 715.517 305.305 715.517 309.387C715.517 313.468 712.312 316.774 708.285 316.991V338.421H802.676V307.303H813.507V285.877H814.404C795.306 267.257 783.612 245.613 783.612 215.401C783.612 128.9 880.563 106.342 895.949 69.59C892.226 68.1345 888.709 66.1367 885.571 63.5935C877.457 57.0192 872.384 47.6746 871.292 37.282C870.199 26.8895 873.216 16.6943 879.783 8.57219C882.383 5.3546 885.449 2.58713 888.895 0.347884L889.431 0L889.202 0.596376C883.211 16.2867 887.952 33.9338 900.996 44.5109C907.863 50.0714 916.492 53.1342 925.298 53.1342C932.804 53.1342 940.086 50.983 946.356 46.9149L946.893 46.5656L946.664 47.1634C945.183 51.01 943.117 54.5883 940.524 57.8016C933.07 67.0213 921.992 72.3091 910.13 72.3091C906.955 72.3091 903.807 71.8974 900.751 71.1363C918.151 106.991 1012.39 130.119 1012.39 215.402C1012.39 245.616 1000.69 267.259 981.591 285.878H982.489V307.304H993.323V338.422H1087.71V317.087C1083.69 316.87 1080.49 313.563 1080.49 309.479C1080.49 305.397 1083.69 302.093 1087.71 301.875V261.014C1083.69 260.795 1080.49 257.492 1080.49 253.41C1080.49 250.596 1082.02 248.165 1084.28 246.836C1075.03 238.336 1069.3 228.506 1069.3 214.477C1069.3 173.121 1119.65 164.976 1119.65 145.953C1119.65 164.976 1170 173.121 1170 214.477C1170 228.507 1164.26 238.337 1155.02 246.837Z" fill="#20453F"/>
</svg>
